<svg xmlns="http://www.w3.org/2000/svg" width="41.402" height="40.353" viewBox="0 0 41.402 40.353">
  <path id="Icon_awesome-arrow-left" data-name="Icon awesome-arrow-left" d="M23.8,40.3l-2.051,2.051a2.209,2.209,0,0,1-3.132,0L.648,24.395a2.209,2.209,0,0,1,0-3.132L18.611,3.3a2.209,2.209,0,0,1,3.132,0L23.8,5.35a2.22,2.22,0,0,1-.037,3.169L12.623,19.128H39.18A2.212,2.212,0,0,1,41.4,21.345V24.3A2.212,2.212,0,0,1,39.18,26.52H12.623L23.758,37.128A2.2,2.2,0,0,1,23.8,40.3Z" transform="translate(0.004 -2.647)" fill="#fff"/>
</svg>
